<?xml version="1.0" encoding="UTF-8"?>
<svg version="1.1" xmlns="http://www.w3.org/2000/svg" width="500" height="500">
<path d="M0 0 C25.08 0 50.16 0 76 0 C76.33 0.66 76.66 1.32 77 2 C75.84128806 4.56293908 74.62589567 7.01788563 73.3125 9.5 C69.88925008 16.12760277 69.88925008 16.12760277 67 23 C65.12874883 27.90089593 62.78586192 32.53194752 60.4140625 37.203125 C57.34772217 43.25775336 54.4138565 49.37071514 51.5 55.5 C48.04770453 62.75472113 44.54046935 69.97345863 40.91796875 77.14453125 C38.00644317 82.93193107 35.23410326 88.78225795 32.49560547 94.65332031 C30.14735321 99.66247848 27.70108386 104.61863478 25.21875 109.5625 C21.06478853 117.83629816 17.02276411 126.16179999 13 134.5 C8.64790499 143.52082194 4.25589622 152.51732588 -0.23840332 161.46826172 C-2.73355079 166.4455077 -5.14666828 171.45453005 -7.5 176.5 C-10.56799115 183.02877009 -13.7256879 189.50177763 -16.98046875 195.93920898 C-19.58066771 201.10427811 -22.04898515 206.32526643 -24.5 211.5625 C-27.19817325 217.32386973 -30.0058484 222.98320828 -33.0625 228.5625 C-36.3884073 234.64411211 -39.23032917 240.87189927 -41.99584961 247.2253418 C-45.37967662 254.96394936 -49.16161311 262.47925821 -53 270 C-56.56754635 277.03421092 -60.01382099 284.11538844 -63.375 291.25 C-66.31599426 297.48834075 -69.29752324 303.70271672 -72.375 309.875 C-72.85718994 310.84614746 -72.85718994 310.84614746 -73.34912109 311.83691406 C-75.09523255 315.31806811 -76.9483373 318.68964853 -79 322 C-82 321 -82 321 -83.69140625 317.7734375 C-84.32598867 316.31196979 -84.94875614 314.84534049 -85.5625 313.375 C-85.90547119 312.57811768 -86.24844238 311.78123535 -86.60180664 310.96020508 C-87.34841729 309.22444783 -88.09066036 307.48680707 -88.82910156 305.74755859 C-90.01414616 302.96680549 -91.21860191 300.19528444 -92.4296875 297.42578125 C-96.19104324 288.82334635 -99.91697774 280.20642693 -103.6003418 271.5703125 C-106.80969447 264.04615587 -110.07652471 256.56660972 -113.54296875 249.15625 C-115.22167748 245.51979784 -116.83588523 241.85839928 -118.4375 238.1875 C-118.73245361 237.51332031 -119.02740723 236.83914063 -119.33129883 236.14453125 C-120.79029477 232.80240801 -122.23338042 229.45472189 -123.6484375 226.09375 C-128.17969457 215.40747963 -133.44167632 205.18597306 -139 195 C-139.93005859 193.27523437 -139.93005859 193.27523437 -140.87890625 191.515625 C-144.40206258 185.20500624 -148.44615916 179.74095867 -153.1796875 174.27734375 C-155 172 -155 172 -156 169 C-156.66 169 -157.32 169 -158 169 C-158 168.34 -158 167.68 -158 167 C-158.66 167 -159.32 167 -160 167 C-160 166.34 -160 165.68 -160 165 C-160.55268555 164.77183594 -161.10537109 164.54367187 -161.67480469 164.30859375 C-164.67246403 162.62154482 -166.7676506 160.49187482 -169.203125 158.0625 C-169.6857782 157.58176025 -170.1684314 157.10102051 -170.66571045 156.60571289 C-171.67999064 155.59278907 -172.69176804 154.57735362 -173.70117188 153.55957031 C-175.25171972 151.99826835 -176.81270503 150.44797503 -178.375 148.8984375 C-179.36001734 147.91209939 -180.34441453 146.9251415 -181.328125 145.9375 C-182.2243457 145.03902344 -183.12056641 144.14054688 -184.04394531 143.21484375 C-186 141 -186 141 -186 139 C-186.66 139 -187.32 139 -188 139 C-188 138.34 -188 137.68 -188 137 C-188.66 137 -189.32 137 -190 137 C-191.7265625 135.1015625 -191.7265625 135.1015625 -193.625 132.625 C-194.57246094 131.40683594 -194.57246094 131.40683594 -195.5390625 130.1640625 C-197 128 -197 128 -197 126 C-197.66 126 -198.32 126 -199 126 C-201.93838744 122.1902287 -204.43338248 118.06669738 -207 114 C-207.89138672 112.61361328 -207.89138672 112.61361328 -208.80078125 111.19921875 C-222.95920303 88.18771485 -229.4700992 62.04989175 -229.125 35.1875 C-229.11493373 33.80143888 -229.10581442 32.41537054 -229.09765625 31.02929688 C-229.07435806 27.68600727 -229.04164862 24.34310269 -229 21 C-228.34 21 -227.68 21 -227 21 C-226.72027344 22.00417969 -226.44054687 23.00835937 -226.15234375 24.04296875 C-222.3922954 37.06147588 -216.90224325 47.95731284 -208.6015625 58.7578125 C-207 61 -207 61 -206 64 C-205.34 64 -204.68 64 -204 64 C-204 64.66 -204 65.32 -204 66 C-203.43539062 66.24621094 -202.87078125 66.49242187 -202.2890625 66.74609375 C-199.60920728 68.21406905 -197.62041197 69.9935669 -195.375 72.0625 C-192.41210833 74.85780458 -192.41210833 74.85780458 -189 77 C-189 77.66 -189 78.32 -189 79 C-188.28714844 79.24878906 -187.57429688 79.49757813 -186.83984375 79.75390625 C-183.6941443 81.13420628 -181.29272158 82.85788441 -178.5625 84.9375 C-174.84865968 87.76382229 -171.22781305 90.01373732 -167 92 C-167 92.66 -167 93.32 -167 94 C-166.40936768 94.12584473 -165.81873535 94.25168945 -165.21020508 94.38134766 C-161.6811753 95.36914855 -158.75605298 97.42740821 -155.6875 99.375 C-154.98544434 99.81835693 -154.28338867 100.26171387 -153.56005859 100.71850586 C-142.29883167 107.91969115 -131.66862509 115.74500593 -122 125 C-121.32839844 125.62003906 -120.65679687 126.24007812 -119.96484375 126.87890625 C-109.60530271 136.74415508 -102.14645247 148.16680207 -96 161 C-95.66419922 161.6818335 -95.32839844 162.36366699 -94.98242188 163.06616211 C-92.22234264 168.90923946 -90.64307881 174.76736083 -89.25 181.0625 C-89.02957031 182.02349609 -88.80914062 182.98449219 -88.58203125 183.97460938 C-88.04649299 186.31467871 -87.51932841 188.65629011 -87 191 C-86.77449463 190.4738208 -86.54898926 189.9476416 -86.31665039 189.40551758 C-85.83699829 188.28632935 -85.83699829 188.28632935 -85.34765625 187.14453125 C-84.98784668 186.3047876 -84.62803711 185.46504395 -84.25732422 184.59985352 C-83.45090634 182.71859627 -82.64392687 180.83757966 -81.83642578 178.95678711 C-79.75950191 174.11719295 -77.69063743 169.27458701 -75.64453125 164.421875 C-71.8508112 155.44929727 -67.91809188 146.64276497 -63.4765625 137.97265625 C-61.83318349 134.66416042 -60.47222901 131.31634602 -59.1484375 127.87109375 C-55.13592458 117.83981144 -50.52253351 108.01802805 -45.92431641 98.24511719 C-43.98559657 94.12278658 -42.07378048 89.98891638 -40.17578125 85.84765625 C-34.13751423 72.68005396 -27.97781181 59.61991074 -21.3203125 46.75390625 C-18.96199877 42.14874138 -16.79937749 37.64937414 -15.125 32.75 C-13.23607234 27.28080359 -10.72814045 22.22857607 -8.08056641 17.09667969 C-5.17912156 11.46098701 -2.63678377 5.8009243 0 0 Z " fill="#08B603" transform="translate(335,113)"/>
<path d="M0 0 C0.33 0 0.66 0 1 0 C1.02578125 0.969375 1.0515625 1.93875 1.078125 2.9375 C1.80898086 22.47374472 6.40737498 38.95952836 21 53 C21.99 53.495 21.99 53.495 23 54 C23 54.66 23 55.32 23 56 C23.66 56 24.32 56 25 56 C25 56.66 25 57.32 25 58 C25.515625 58.226875 26.03125 58.45375 26.5625 58.6875 C29.89547005 60.48217618 33.14703671 62.49965015 36 65 C36 65.66 36 66.32 36 67 C37.01513672 67.33837891 37.01513672 67.33837891 38.05078125 67.68359375 C41.808769 69.3610002 44.88854141 71.62533832 48.1875 74.0625 C52.43524864 77.28371363 52.43524864 77.28371363 57 80 C57 80.66 57 81.32 57 82 C57.71542969 82.2578125 58.43085938 82.515625 59.16796875 82.78125 C62.17160111 84.07384765 64.63505372 85.6277709 67.3125 87.5 C68.19550781 88.1084375 69.07851562 88.716875 69.98828125 89.34375 C70.65214844 89.8903125 71.31601563 90.436875 72 91 C72 91.66 72 92.32 72 93 C72.73968018 93.25668457 73.47936035 93.51336914 74.24145508 93.77783203 C77.12156433 95.05385884 78.85464925 96.40451217 81.13671875 98.5546875 C81.87857422 99.25207031 82.62042969 99.94945312 83.38476562 100.66796875 C84.52461914 101.76044922 84.52461914 101.76044922 85.6875 102.875 C86.45900391 103.59558594 87.23050781 104.31617188 88.02539062 105.05859375 C94.23835404 110.9514132 94.23835404 110.9514132 96 115 C96.66 115 97.32 115 98 115 C99.6537433 116.90165363 101.17887441 118.7999693 102.6875 120.8125 C103.13375732 121.40200439 103.58001465 121.99150879 104.03979492 122.59887695 C110.27206362 130.92536712 115.63343377 139.55507617 120 149 C120.48339844 150.01320312 120.96679688 151.02640625 121.46484375 152.0703125 C125.88321254 161.76149289 128.64793822 171.63542006 131 182 C131.24878906 183.08667969 131.49757813 184.17335937 131.75390625 185.29296875 C135.72301969 206.30428957 133.87163669 229.87096179 124 249 C123.01 248.67 122.02 248.34 121 248 C120.04296875 245.2265625 120.04296875 245.2265625 119.1875 241.625 C117.3439757 234.71353627 114.70876458 229.0812831 111 223 C109.87478999 221.14596077 108.74978213 219.29179884 107.625 217.4375 C107.12226563 216.63183594 106.61953125 215.82617188 106.1015625 214.99609375 C105 213 105 213 105 211 C104.34 211 103.68 211 103 211 C99 206.52941176 99 206.52941176 99 204 C98.34 204 97.68 204 97 204 C95.5546875 202.49609375 95.5546875 202.49609375 93.875 200.4375 C90.70687138 196.68243387 87.30569764 193.54734343 83.50390625 190.4453125 C83.00761719 189.96835938 82.51132813 189.49140625 82 189 C82 188.34 82 187.68 82 187 C80.35 186.34 78.7 185.68 77 185 C77 184.34 77 183.68 77 183 C76.45859375 182.7421875 75.9171875 182.484375 75.359375 182.21875 C72.56507559 180.77533706 69.91780654 179.16561466 67.25 177.5 C66.26515625 176.8915625 65.2803125 176.283125 64.265625 175.65625 C63.51796875 175.1096875 62.7703125 174.563125 62 174 C62 173.34 62 172.68 62 172 C61.41226807 171.87705566 60.82453613 171.75411133 60.21899414 171.62744141 C57.98736769 170.9964281 56.44350089 170.20179684 54.49609375 168.9609375 C53.84326416 168.54884033 53.19043457 168.13674316 52.51782227 167.7121582 C51.83131592 167.270896 51.14480957 166.82963379 50.4375 166.375 C49.72585693 165.92278076 49.01421387 165.47056152 48.28100586 165.00463867 C46.84846724 164.09384604 45.41721217 163.18103116 43.98730469 162.26611328 C42.27295245 161.17389821 40.54761976 160.09895329 38.8203125 159.02734375 C13.70380575 143.40957255 -5.34457718 122.81258879 -12.2578125 93.5078125 C-12.50273438 92.35023438 -12.74765625 91.19265625 -13 90 C-13.22429687 89.02804688 -13.44859375 88.05609375 -13.6796875 87.0546875 C-19.17459536 58.82742111 -13.70046348 25.26689839 0 0 Z " fill="#27C904" transform="translate(130,39)"/>
<path d="M0 0 C0.66 0 1.32 0 2 0 C2.27972656 1.00417969 2.55945313 2.00835937 2.84765625 3.04296875 C6.6077046 16.06147588 12.09775675 26.95731284 20.3984375 37.7578125 C22 40 22 40 23 43 C23.66 43 24.32 43 25 43 C25 43.66 25 44.32 25 45 C25.598125 45.2475 26.19625 45.495 26.8125 45.75 C29.28647521 47.16370012 30.43370255 48.65055383 32 51 C29.23723823 50.47731534 26.6739124 49.89130413 24 49 C24 49.99 24 50.98 24 52 C23.34 52 22.68 52 22 52 C21.67 49.03 21.34 46.06 21 43 C19.68 42.67 18.36 42.34 17 42 C17 40.35 17 38.7 17 37 C16.34 37 15.68 37 15 37 C15 35.68 15 34.36 15 33 C13.21858253 32.13641377 13.21858253 32.13641377 11 32 C8.40087749 33.1786663 8.40087749 33.1786663 7 36 C7.09614556 39.4612402 8.07838027 42.67709583 9 46 C9.52916455 47.97029355 10.05471172 49.94153238 10.58007812 51.9128418 C11.10704594 53.87079167 11.65088921 55.82417553 12.1953125 57.77734375 C13 61 13 61 13 64 C13.66 64.33 14.32 64.66 15 65 C15.33108399 68.22054431 15.46555714 71.39580257 15.56640625 74.62890625 C15.6459281 76.42333399 15.81631317 78.21322811 16 80 C16.66 80.33 17.32 80.66 18 81 C17.01 81 16.02 81 15 81 C10.73615104 71.55181855 6.75213879 62.17249077 4.125 52.125 C3.83943237 51.04158325 3.83943237 51.04158325 3.5480957 49.9362793 C0.5927016 38.01988454 -0.28243312 26.44203455 -0.125 14.1875 C-0.11493373 12.80143888 -0.10581442 11.41537054 -0.09765625 10.02929688 C-0.07435806 6.68600727 -0.04164862 3.34310269 0 0 Z " fill="#3DE904" transform="translate(106,134)"/>
<path d="M0 0 C0.33 0 0.66 0 1 0 C1 11.55 1 23.1 1 35 C1.66 35 2.32 35 3 35 C2.95359375 35.81082031 2.9071875 36.62164062 2.859375 37.45703125 C2.63545991 44.32642625 3.16894078 49.61679495 5.77734375 55.96484375 C7.28844299 59.71603898 8.53113562 63.52072953 9.75 67.375 C9.97260498 68.05344971 10.19520996 68.73189941 10.42456055 69.4309082 C11.57115255 73.0560102 12.26451206 76.19396532 12 80 C12.66 80 13.32 80 14 80 C14.33 80.99 14.66 81.98 15 83 C15.53625 83.474375 16.0725 83.94875 16.625 84.4375 C17.305625 85.2109375 17.305625 85.2109375 18 86 C17.5859375 88.09765625 17.5859375 88.09765625 17 90 C8.67411139 77.70822954 3.23184687 65.51223547 0 51 C-0.226875 50.02289063 -0.45375 49.04578125 -0.6875 48.0390625 C-3.63367087 32.77626062 -3.38163978 15.18718579 0 0 Z " fill="#99F476" transform="translate(117,78)"/>
<path d="M0 0 C0.33 0 0.66 0 1 0 C1.03867188 1.4540625 1.03867188 1.4540625 1.078125 2.9375 C1.52734557 14.71953247 3.34351462 26.07918452 8 37 C7.34 37 6.68 37 6 37 C6 36.01 6 35.02 6 34 C5.030625 33.7525 4.06125 33.505 3.0625 33.25 C1.5465625 32.63125 1.5465625 32.63125 0 32 C-0.875 29.875 -0.875 29.875 -1 28 C-0.34 28 0.32 28 1 28 C1 26.35 1 24.7 1 23 C0.34 23 -0.32 23 -1 23 C-1.33 23.99 -1.66 24.98 -2 26 C-2.99 26 -3.98 26 -5 26 C-5.33 26.66 -5.66 27.32 -6 28 C-6.66 28 -7.32 28 -8 28 C-8 28.99 -8 29.98 -8 31 C-8.66 31 -9.32 31 -10 31 C-10 34.3 -10 37.6 -10 41 C-10.66 40.34 -11.32 39.68 -12 39 C-11.74179732 31.48933957 -9.56202822 24.87464091 -7.125 17.8125 C-6.77308594 16.75869141 -6.42117187 15.70488281 -6.05859375 14.61914062 C-4.33981764 9.54907057 -2.57931642 4.69630254 0 0 Z " fill="#3BE70A" transform="translate(130,39)"/>
<path d="M0 0 C0.66 0 1.32 0 2 0 C2.27972656 1.00417969 2.55945313 2.00835937 2.84765625 3.04296875 C6.6077046 16.06147588 12.09775675 26.95731284 20.3984375 37.7578125 C22 40 22 40 23 43 C23.66 43 24.32 43 25 43 C25 43.66 25 44.32 25 45 C25.598125 45.2475 26.19625 45.495 26.8125 45.75 C29.28647521 47.16370012 30.43370255 48.65055383 32 51 C29.23723823 50.47731534 26.6739124 49.89130413 24 49 C24 49.99 24 50.98 24 52 C23.34 52 22.68 52 22 52 C21.67 49.03 21.34 46.06 21 43 C19.68 42.67 18.36 42.34 17 42 C17 40.35 17 38.7 17 37 C16.34 37 15.68 37 15 37 C15 35.68 15 34.36 15 33 C14.01 32.67 13.02 32.34 12 32 C10.96708324 30.01679982 9.9662501 28.01652194 9 26 C8.34 25.67 7.68 25.34 7 25 C6.855625 23.88625 6.71125 22.7725 6.5625 21.625 C6.32389718 17.73357857 6.32389718 17.73357857 3 15 C2.67 21.93 2.34 28.86 2 36 C1.67 36 1.34 36 1 36 C0.14083904 31.55852431 -0.11697565 27.37230176 -0.09765625 22.8515625 C-0.09553383 21.86547501 -0.09553383 21.86547501 -0.09336853 20.85946655 C-0.08781762 18.78126269 -0.07527465 16.70317073 -0.0625 14.625 C-0.05747864 13.20703282 -0.05291685 11.78906393 -0.04882812 10.37109375 C-0.03786437 6.91402678 -0.02063421 3.45702433 0 0 Z " fill="#6FE151" transform="translate(106,134)"/>
<path d="M0 0 C25.08 0 50.16 0 76 0 C76.495 0.99 76.495 0.99 77 2 C76.34 2.99 75.68 3.98 75 5 C75 4.01 75 3.02 75 2 C50.91 2 26.82 2 2 2 C2 2.66 2 3.32 2 4 C1.34 4 0.68 4 0 4 C-0.33 5.65 -0.66 7.3 -1 9 C-1.66 9 -2.32 9 -3 9 C-2.01 6.03 -1.02 3.06 0 0 Z " fill="#85DE81" transform="translate(335,113)"/>
<path d="M0 0 C0.66 0 1.32 0 2 0 C4.10575375 5.52760359 5.37851209 10.06997733 5 16 C6.32 16 7.64 16 9 16 C9.12117188 16.71027344 9.24234375 17.42054688 9.3671875 18.15234375 C9.53476563 19.07144531 9.70234375 19.99054688 9.875 20.9375 C10.11863281 22.31228516 10.11863281 22.31228516 10.3671875 23.71484375 C10.57601562 24.46894531 10.78484375 25.22304687 11 26 C11.66 26.33 12.32 26.66 13 27 C13.33108399 30.22054431 13.46555714 33.39580257 13.56640625 36.62890625 C13.6459281 38.42333399 13.81631317 40.21322811 14 42 C14.66 42.33 15.32 42.66 16 43 C15.01 43 14.02 43 13 43 C8.65968349 33.38237557 4.66931274 23.85351731 2 13.625 C1.79286377 12.83569092 1.58572754 12.04638184 1.37231445 11.2331543 C0.4249335 7.41429597 -0.25284371 3.96648576 0 0 Z " fill="#3FE108" transform="translate(108,172)"/>
<path d="M0 0 C0.56460938 0.70640625 1.12921875 1.4128125 1.7109375 2.140625 C2.46632812 3.08421875 3.22171875 4.0278125 4 5 C4.75539062 5.94359375 5.51078125 6.8871875 6.2890625 7.859375 C7.05992187 8.81328125 7.83078125 9.7671875 8.625 10.75 C9.40101563 11.71421875 10.17703125 12.6784375 10.9765625 13.671875 C12.78465529 16.05137684 12.78465529 16.05137684 15 17 C15 17.66 15 18.32 15 19 C15.66 19 16.32 19 17 19 C17 19.66 17 20.32 17 21 C17.515625 21.226875 18.03125 21.45375 18.5625 21.6875 C21.92403127 23.4975553 24.92911144 25.73996404 28 28 C27.67 28.66 27.34 29.32 27 30 C25.68 29.67 24.36 29.34 23 29 C23 28.34 23 27.68 23 27 C20.69 27.33 18.38 27.66 16 28 C15.67 26.02 15.34 24.04 15 22 C14.34 22 13.68 22 13 22 C11 20 11 20 10 18 C9.01 17.67 8.02 17.34 7 17 C5.96567096 15.01753602 4.96761608 13.01586684 4 11 C2.43897509 9.18445841 2.43897509 9.18445841 1 8 C0.34 8.66 -0.32 9.32 -1 10 C-1.33 8.68 -1.66 7.36 -2 6 C-1.34 5.67 -0.68 5.34 0 5 C0 3.35 0 1.7 0 0 Z " fill="#60E634" transform="translate(138,76)"/>
<path d="M0 0 C4.69119439 1.56373146 8.25622158 4.15820132 12.1875 7.0625 C16.43524864 10.28371363 16.43524864 10.28371363 21 13 C21 13.66 21 14.32 21 15 C21.680625 15.226875 22.36125 15.45375 23.0625 15.6875 C26.79614324 17.35572357 29.72163421 19.55729608 33 22 C31 23 31 23 28.8359375 22.44140625 C27.61777344 22.00634766 27.61777344 22.00634766 26.375 21.5625 C25.55773437 21.27503906 24.74046875 20.98757812 23.8984375 20.69140625 C23.27195313 20.46324219 22.64546875 20.23507813 22 20 C22 19.01 22 18.02 22 17 C17.32528214 15.07511617 12.58073033 13.48637856 7.75 12 C5 11 5 11 3 9 C2.40165446 7.47943382 1.86493344 5.93387912 1.375 4.375 C1.11460937 3.55773437 0.85421875 2.74046875 0.5859375 1.8984375 C0.39257812 1.27195312 0.19921875 0.64546875 0 0 Z " fill="#3DD50D" transform="translate(166,106)"/>
<path d="M0 0 C0.99 0.33 1.98 0.66 3 1 C1.53415094 5.83131886 -0.4571477 10.15198757 -2.75 14.625 C-3.46358211 16.03383368 -4.17712334 17.44268807 -4.890625 18.8515625 C-5.24447266 19.54668945 -5.59832031 20.24181641 -5.96289062 20.95800781 C-7.48997552 23.96472582 -8.99473399 26.98230004 -10.5 30 C-11.75 32.5 -11.75 32.5 -13 35 C-13.33 35 -13.66 35 -14 35 C-14 33.35 -14 31.7 -14 30 C-13.34 30 -12.68 30 -12 30 C-12 28.68 -12 27.36 -12 26 C-12.66 26 -13.32 26 -14 26 C-14 25.01 -14 24.02 -14 23 C-13.38125 22.95875 -12.7625 22.9175 -12.125 22.875 C-11.42375 22.58625 -10.7225 22.2975 -10 22 C-8.6954344 19.00384054 -8.6954344 19.00384054 -8 16 C-7.34 16 -6.68 16 -6 16 C-6 15.01 -6 14.02 -6 13 C-5.34 13 -4.68 13 -4 13 C-4.350625 12.4225 -4.70125 11.845 -5.0625 11.25 C-6.14917407 8.64198224 -5.93065133 7.60582371 -5 5 C-3.68 4.67 -2.36 4.34 -1 4 C-0.67 2.68 -0.34 1.36 0 0 Z " fill="#29B32C" transform="translate(279,380)"/>
<path d="M0 0 C4.09850498 2.94602555 6.79396522 6.19706159 9.4375 10.4375 C9.82220459 11.0449707 10.20690918 11.65244141 10.60327148 12.27832031 C20 27.45267431 20 27.45267431 20 33 C19.01 33 18.02 33 17 33 C16.34 31.02 15.68 29.04 15 27 C13.68 27 12.36 27 11 27 C10.96261719 26.31292969 10.92523438 25.62585938 10.88671875 24.91796875 C10.82097656 24.01691406 10.75523437 23.11585938 10.6875 22.1875 C10.62949219 21.29417969 10.57148438 20.40085937 10.51171875 19.48046875 C9.9290429 16.65604766 9.23914391 15.75261387 7 14 C6.34 13.67 5.68 13.34 5 13 C5.33 11.35 5.66 9.7 6 8 C4.02 7.34 2.04 6.68 0 6 C0 4 0 2 0 0 Z " fill="#4CA64C" transform="translate(221,248)"/>
<path d="M0 0 C0.33 0 0.66 0 1 0 C1.03867188 1.4540625 1.03867188 1.4540625 1.078125 2.9375 C1.52734557 14.71953247 3.34351462 26.07918452 8 37 C7.34 37 6.68 37 6 37 C6 36.01 6 35.02 6 34 C5.030625 33.7525 4.06125 33.505 3.0625 33.25 C1.5465625 32.63125 1.5465625 32.63125 0 32 C-0.875 29.875 -0.875 29.875 -1 28 C-0.34 28 0.32 28 1 28 C0.86722656 27.45472656 0.73445312 26.90945312 0.59765625 26.34765625 C-0.67789247 20.90097013 -1.46963843 15.56879648 -2 10 C-2.33 11.65 -2.66 13.3 -3 15 C-3.66 15 -4.32 15 -5 15 C-4.43174347 9.45949887 -2.37113483 4.96284034 0 0 Z " fill="#89E571" transform="translate(130,39)"/>
<path d="M0 0 C1.43088528 2.86177057 0.59991697 4.93375773 0 8 C-0.66 8 -1.32 8 -2 8 C-2 10.97 -2 13.94 -2 17 C-2.66 17 -3.32 17 -4 17 C-4.1546875 17.8971875 -4.1546875 17.8971875 -4.3125 18.8125 C-5 21 -5 21 -6.4375 22.3125 C-8.3238775 24.09037479 -8.3238775 24.09037479 -9 27.625 C-9.33 28.73875 -9.66 29.8525 -10 31 C-10.99 31.33 -11.98 31.66 -13 32 C-13 33.32 -13 34.64 -13 36 C-14.485 36.495 -14.485 36.495 -16 37 C-13.96225094 30.42132259 -11.43021227 24.19476199 -8.5625 17.9375 C-8.18029297 17.09123047 -7.79808594 16.24496094 -7.40429688 15.37304688 C-5.04950554 10.1877084 -2.57731559 5.07830976 0 0 Z " fill="#30C630" transform="translate(273,248)"/>
<path d="M0 0 C2.32559267 2.82659548 3.58020357 5.22210735 4.5703125 8.73828125 C4.82683594 9.64126953 5.08335938 10.54425781 5.34765625 11.47460938 C5.60417969 12.41111328 5.86070313 13.34761719 6.125 14.3125 C6.38925781 15.23740234 6.65351562 16.16230469 6.92578125 17.11523438 C8.31357845 22.07114977 9.42148413 26.88507313 10 32 C10.66 32 11.32 32 12 32 C12.33 32.99 12.66 33.98 13 35 C13.53625 35.474375 14.0725 35.94875 14.625 36.4375 C15.07875 36.953125 15.5325 37.46875 16 38 C15.5859375 40.09765625 15.5859375 40.09765625 15 42 C7.47210638 30.88633457 1.43320439 20.62427813 1 7 C0.7216731 4.65468659 0.36306941 2.33401765 0 0 Z " fill="#6EF141" transform="translate(119,126)"/>
<path d="M0 0 C0.99 0.33 1.98 0.66 3 1 C3 1.66 3 2.32 3 3 C3.73968018 3.25668457 4.47936035 3.51336914 5.24145508 3.77783203 C8.12156433 5.05385884 9.85464925 6.40451217 12.13671875 8.5546875 C12.87857422 9.25207031 13.62042969 9.94945312 14.38476562 10.66796875 C15.14466797 11.39628906 15.90457031 12.12460938 16.6875 12.875 C17.45900391 13.59558594 18.23050781 14.31617188 19.02539062 15.05859375 C25.23835404 20.9514132 25.23835404 20.9514132 27 25 C19.33333333 22.5 19.33333333 22.5 17 19 C17 18.01 17 17.02 17 16 C16.34 16 15.68 16 15 16 C15 15.01 15 14.02 15 13 C12.69 12.67 10.38 12.34 8 12 C8 11.01 8 10.02 8 9 C7.34 9.66 6.68 10.32 6 11 C5.71125 10.360625 5.4225 9.72125 5.125 9.0625 C4.17176549 6.84793921 4.17176549 6.84793921 2 6 C2 4.68 2 3.36 2 2 C1.34 2 0.68 2 0 2 C0 1.34 0 0.68 0 0 Z " fill="#7BDB57" transform="translate(199,129)"/>
<path d="M0 0 C1.37478516 0.01740234 1.37478516 0.01740234 2.77734375 0.03515625 C3.69644531 0.04417969 4.61554688 0.05320312 5.5625 0.0625 C6.27277344 0.07410156 6.98304688 0.08570312 7.71484375 0.09765625 C7.3116745 6.41397453 5.00252244 10.74759609 1.71484375 16.09765625 C1.38484375 16.09765625 1.05484375 16.09765625 0.71484375 16.09765625 C0.67746094 15.51757812 0.64007813 14.9375 0.6015625 14.33984375 C0.17580708 9.28086761 -0.65654616 5.55486467 -3.28515625 1.09765625 C-2.28515625 0.09765625 -2.28515625 0.09765625 0 0 Z " fill="#2ACC28" transform="translate(402.28515625,114.90234375)"/>
<path d="M0 0 C3 1.75 3 1.75 6 4 C6 5.32 6 6.64 6 8 C7.98 8 9.96 8 12 8 C12 10.66666667 12 13.33333333 12 16 C12.680625 16.78375 13.36125 17.5675 14.0625 18.375 C16 21 16 21 15.75 23.3125 C15.37875 24.1478125 15.37875 24.1478125 15 25 C15 24.34 15 23.68 15 23 C14.34 23 13.68 23 13 23 C11.65587562 21.2197028 10.39963181 19.37266253 9.1875 17.5 C8.47980469 16.40816406 7.77210938 15.31632813 7.04296875 14.19140625 C6.03169922 12.61166016 6.03169922 12.61166016 5 11 C4.45988281 10.18402344 3.91976562 9.36804688 3.36328125 8.52734375 C0 3.37159742 0 3.37159742 0 0 Z " fill="#34CA18" transform="translate(123,216)"/>
<path d="M0 0 C1.1484375 1.671875 1.1484375 1.671875 2 4 C1.1640625 6.453125 1.1640625 6.453125 -0.375 9.25 C-0.931875 10.2915625 -1.48875 11.333125 -2.0625 12.40625 C-2.371875 12.97472656 -2.68125 13.54320312 -3 14.12890625 C-4.87064852 17.62906501 -6.61171221 21.19492044 -8.375 24.75 C-9.06981146 26.14087541 -9.76508274 27.53152126 -10.4609375 28.921875 C-10.96882813 29.93765625 -11.47671875 30.9534375 -12 32 C-12.33 32 -12.66 32 -13 32 C-13 30.35 -13 28.7 -13 27 C-12.34 27 -11.68 27 -11 27 C-10.855625 26.071875 -10.71125 25.14375 -10.5625 24.1875 C-10 21 -10 21 -9 18 C-8.34 18 -7.68 18 -7 18 C-7 16.68 -7 15.36 -7 14 C-6.34 14 -5.68 14 -5 14 C-5 13.01 -5 12.02 -5 11 C-4.34 11 -3.68 11 -3 11 C-3 8.69 -3 6.38 -3 4 C-2.34 4 -1.68 4 -1 4 C-0.67 2.68 -0.34 1.36 0 0 Z " fill="#5FCC5F" transform="translate(336,264)"/>
<path d="M0 0 C0.9075 0.37125 1.815 0.7425 2.75 1.125 C5.88097015 2.30359299 5.88097015 2.30359299 8.375 1.125 C8.91125 0.75375 9.4475 0.3825 10 0 C10.33 0.99 10.66 1.98 11 3 C10.34 3 9.68 3 9 3 C9.34227572 5.97065509 9.34227572 5.97065509 10 9 C10.66 9.33 11.32 9.66 12 10 C15 12 15 12 15.6875 15.125 C15.790625 16.07375 15.89375 17.0225 16 18 C13.95880212 16.38405168 11.95927063 14.7143618 10 13 C10 12.34 10 11.68 10 11 C9.34 11 8.68 11 8 11 C8 10.34 8 9.68 8 9 C7.34 9 6.68 9 6 9 C4.4921875 7.5390625 4.4921875 7.5390625 2.875 5.625 C2.06675781 4.68527344 2.06675781 4.68527344 1.2421875 3.7265625 C0 2 0 2 0 0 Z " fill="#3FC834" transform="translate(139,241)"/>
<path d="M0 0 C0.71285156 0.45890625 1.42570313 0.9178125 2.16015625 1.390625 C7.37254796 4.72992305 12.58843574 7.99357541 18 11 C18 11.66 18 12.32 18 13 C17.0925 12.814375 16.185 12.62875 15.25 12.4375 C12.31685676 12.04265379 10.7355343 12.05308428 8 13 C7.566875 12.34 7.13375 11.68 6.6875 11 C5.8521875 10.01 5.8521875 10.01 5 9 C4.01 9 3.02 9 2 9 C1.855625 8.2575 1.71125 7.515 1.5625 6.75 C1.09800774 4.47914894 0.57094564 2.24539967 0 0 Z " fill="#41D407" transform="translate(150,194)"/>
<path d="M0 0 C1.21875 1.53125 1.21875 1.53125 2 4 C0.95990493 6.68489657 -0.12467389 8.99553352 -1.5 11.5 C-2.25015724 12.92700068 -3.00015556 14.35408493 -3.75 15.78125 C-4.12898438 16.48894531 -4.50796875 17.19664062 -4.8984375 17.92578125 C-6.49013806 20.92291954 -7.99394534 23.95892808 -9.5 27 C-10.33333333 28.66666667 -11.16666667 30.33333333 -12 32 C-12.93423645 28.98968256 -13.04449911 28.13349732 -12 25 C-11.34 25 -10.68 25 -10 25 C-10 23.68 -10 22.36 -10 21 C-9.34 21 -8.68 21 -8 21 C-8 19.02 -8 17.04 -8 15 C-7.34 15 -6.68 15 -6 15 C-5.34 13.02 -4.68 11.04 -4 9 C-3.34 9 -2.68 9 -2 9 C-2 7.02 -2 5.04 -2 3 C-1.34 3 -0.68 3 0 3 C0 2.01 0 1.02 0 0 Z " fill="#5BCB5E" transform="translate(321,295)"/>
<path d="M0 0 C4.875 2.625 4.875 2.625 6 6 C6.66 6 7.32 6 8 6 C8 6.66 8 7.32 8 8 C8.598125 8.2475 9.19625 8.495 9.8125 8.75 C12.28647521 10.16370012 13.43370255 11.65055383 15 14 C12.23723823 13.47731534 9.6739124 12.89130413 7 12 C7 12.99 7 13.98 7 15 C6.34 15 5.68 15 5 15 C4.67 12.03 4.34 9.06 4 6 C2.68 5.67 1.36 5.34 0 5 C0 3.35 0 1.7 0 0 Z " fill="#67E737" transform="translate(123,171)"/>
<path d="M0 0 C1.32 0 2.64 0 4 0 C2.6077541 4.62675657 0.70479016 8.64686231 -1.625 12.875 C-2.25664062 14.02742188 -2.88828125 15.17984375 -3.5390625 16.3671875 C-4.02117187 17.23601562 -4.50328125 18.10484375 -5 19 C-5.99 18.67 -6.98 18.34 -8 18 C-8.94921875 15.93359375 -8.94921875 15.93359375 -9.6875 13.4375 C-9.93886719 12.61121094 -10.19023437 11.78492188 -10.44921875 10.93359375 C-10.63097656 10.29550781 -10.81273437 9.65742188 -11 9 C-10.01 9.33 -9.02 9.66 -8 10 C-7.67 11.65 -7.34 13.3 -7 15 C-6.34 15 -5.68 15 -5 15 C-4.67 13.35 -4.34 11.7 -4 10 C-3.34 10 -2.68 10 -2 10 C-2 8.68 -2 7.36 -2 6 C-1.34 6 -0.68 6 0 6 C0 4.02 0 2.04 0 0 Z " fill="#67C869" transform="translate(261,416)"/>
<path d="M0 0 C0.99 0.33 1.98 0.66 3 1 C4.1875 4.5625 4.1875 4.5625 5 8 C6.32 8.33 7.64 8.66 9 9 C9.65156409 13.72383963 10.11950637 18.21974517 10 23 C6.74050304 19.24907119 5.14193882 14.92759097 3.3125 10.375 C2.99216797 9.59898437 2.67183594 8.82296875 2.34179688 8.0234375 C0 2.2713053 0 2.2713053 0 0 Z " fill="#25AD26" transform="translate(230,379)"/>
<path d="M0 0 C1.32 1.65 2.64 3.3 4 5 C4.33 5.33 4.66 5.66 5 6 C5.23192865 7.51469448 5.41215238 9.03754562 5.5625 10.5625 C5.64628906 11.38878906 5.73007813 12.21507812 5.81640625 13.06640625 C5.87699219 13.70449219 5.93757813 14.34257812 6 15 C5.01 15 4.02 15 3 15 C1.85185003 17.29629994 1.69230191 19.07698086 1.4375 21.625 C1.35371094 22.44226563 1.26992187 23.25953125 1.18359375 24.1015625 C1.12300781 24.72804687 1.06242187 25.35453125 1 26 C0.67 26 0.34 26 0 26 C0 17.42 0 8.84 0 0 Z " fill="#3FE30D" transform="translate(108,146)"/>
<path d="M0 0 C4.97642319 3.36640392 8.09059796 7.82106441 11 13 C11 13.66 11 14.32 11 15 C9.68 14.67 8.36 14.34 7 14 C7 12.68 7 11.36 7 10 C3.62182575 9.15545644 1.32534757 8.89155081 -2 10 C-2 6 -2 6 0 4 C0 2.68 0 1.36 0 0 Z " fill="#52CB2E" transform="translate(228,156)"/>
<path d="M0 0 C0.33 0 0.66 0 1 0 C0.51685086 4.75096653 -0.03893361 8.61643983 -2 13 C-2.28875 14.0725 -2.5775 15.145 -2.875 16.25 C-3.24625 17.1575 -3.6175 18.065 -4 19 C-6.125 19.875 -6.125 19.875 -8 20 C-7.45318976 14.99399078 -5.75859667 11.02818933 -3.4375 6.625 C-3.10814453 5.98433594 -2.77878906 5.34367188 -2.43945312 4.68359375 C-1.63360518 3.11861368 -0.81781507 1.55875979 0 0 Z " fill="#3ECD3E" transform="translate(327,131)"/>
<path d="M0 0 C1.4731994 2.74997221 2.22404875 4.89619499 3 8 C3.99 5.36 4.98 2.72 6 0 C7.15866723 4.63466892 6.70010994 7.33260039 6 12 C5.34 12 4.68 12 4 12 C3.731875 13.11375 3.46375 14.2275 3.1875 15.375 C2 19 2 19 -1 21 C-0.75443359 19.75863281 -0.75443359 19.75863281 -0.50390625 18.4921875 C0.0464547 14.67805811 0.11089055 10.96646499 0.0625 7.125 C0.05798828 6.43664062 0.05347656 5.74828125 0.04882812 5.0390625 C0.03716336 3.35933665 0.01923271 1.67965625 0 0 Z " fill="#47B246" transform="translate(245,296)"/>
<path d="M0 0 C1.70840281 1.63412443 2.93453047 2.86906094 4 5 C4.66 5.33 5.32 5.66 6 6 C5.34 6.66 4.68 7.32 4 8 C4.99 8.66 5.98 9.32 7 10 C6.67 10.66 6.34 11.32 6 12 C6.99 12 7.98 12 9 12 C9.33 14.31 9.66 16.62 10 19 C9.67 18.34 9.34 17.68 9 17 C8.34 17 7.68 17 7 17 C3 12.52941176 3 12.52941176 3 10 C2.34 10 1.68 10 1 10 C-0.83691257 6.21812119 -1.15837626 4.05431692 0 0 Z " fill="#26A025" transform="translate(226,233)"/>
<path d="M0 0 C0.99 0.33 1.98 0.66 3 1 C3 1.99 3 2.98 3 4 C3.66 4 4.32 4 5 4 C6.125 7.75 6.125 7.75 5 10 C5.99 10.33 6.98 10.66 8 11 C8 11.99 8 12.98 8 14 C8.66 14 9.32 14 10 14 C10 16.64 10 19.28 10 22 C7.43538887 20.71769444 7.20789482 19.6623105 6.0546875 17.0703125 C5.70019531 16.27496094 5.34570312 15.47960937 4.98046875 14.66015625 C4.61566406 13.82355469 4.25085938 12.98695313 3.875 12.125 C3.50246094 11.29613281 3.12992188 10.46726562 2.74609375 9.61328125 C0 3.38679029 0 3.38679029 0 0 Z " fill="#6FCA71" transform="translate(240,402)"/>
<path d="M0 0 C0.66 0.66 1.32 1.32 2 2 C1.5188096 8.57626884 -0.9608683 15.18486489 -4 21 C-4.99 20.67 -5.98 20.34 -7 20 C-7 18.68 -7 17.36 -7 16 C-5.68 16 -4.36 16 -3 16 C-3 12.7 -3 9.4 -3 6 C-2.34 6 -1.68 6 -1 6 C-0.67 4.02 -0.34 2.04 0 0 Z " fill="#51AD50" transform="translate(258,267)"/>
<path d="M0 0 C2.9719385 1.12451727 5.33440687 2.22293791 8 4 C8 4.66 8 5.32 8 6 C8.680625 6.226875 9.36125 6.45375 10.0625 6.6875 C13.79614324 8.35572357 16.72163421 10.55729608 20 13 C18 14 18 14 15.8359375 13.44140625 C15.02382812 13.15136719 14.21171875 12.86132812 13.375 12.5625 C12.55773437 12.27503906 11.74046875 11.98757812 10.8984375 11.69140625 C10.27195313 11.46324219 9.64546875 11.23507813 9 11 C9 10.01 9 9.02 9 8 C8.2575 7.773125 7.515 7.54625 6.75 7.3125 C3.47430322 5.74909927 2.04696424 3.95672612 0 1 C0 0.67 0 0.34 0 0 Z " fill="#80DE64" transform="translate(179,115)"/>
<path d="M0 0 C0.33 0.66 0.66 1.32 1 2 C1.66 2 2.32 2 3 2 C3 3.32 3 4.64 3 6 C1.68 6 0.36 6 -1 6 C-1 7.65 -1 9.3 -1 11 C-1.66 11 -2.32 11 -3 11 C-3.0825 12.093125 -3.165 13.18625 -3.25 14.3125 C-4 18 -4 18 -6.0625 19.9375 C-6.701875 20.288125 -7.34125 20.63875 -8 21 C-7.32512263 16.18080529 -5.42034091 12.08116134 -3.4375 7.6875 C-2.9434668 6.57665039 -2.9434668 6.57665039 -2.43945312 5.44335938 C-1.63082877 3.62688438 -0.81602884 1.81316069 0 0 Z " fill="#64D564" transform="translate(282,227)"/>
<path d="M0 0 C3.375 -0.1875 3.375 -0.1875 7 0 C9 3 9 3 10 6 C12.31 6 14.62 6 17 6 C17.33 7.98 17.66 9.96 18 12 C14.12750294 10.58220053 10.79251936 8.77015212 7.3125 6.5625 C5.88357422 5.66724609 5.88357422 5.66724609 4.42578125 4.75390625 C2 3 2 3 0 0 Z " fill="#73DA66" transform="translate(153,186)"/>
<path d="M0 0 C0.66 0 1.32 0 2 0 C4.63096039 6.48343811 5.39325819 12.02330843 5 19 C5.66 19 6.32 19 7 19 C7 21.31 7 23.62 7 26 C4.80257646 23.80257646 4.48679064 22.76272326 3.7109375 19.82421875 C3.49179688 18.99599609 3.27265625 18.16777344 3.046875 17.31445312 C2.82515625 16.44755859 2.6034375 15.58066406 2.375 14.6875 C2.14554687 13.83220703 1.91609375 12.97691406 1.6796875 12.09570312 C0.61352858 7.99924131 -0.3346996 4.27182383 0 0 Z " fill="#82E862" transform="translate(108,172)"/>
<path d="M0 0 C0.99 0 1.98 0 3 0 C3.83790789 1.78953185 4.67019396 3.58169695 5.5 5.375 C5.9640625 6.37273437 6.428125 7.37046875 6.90625 8.3984375 C8 11 8 11 8 13 C7.01 13 6.02 13 5 13 C4.34 11.02 3.68 9.04 3 7 C1.68 7 0.36 7 -1 7 C-0.67 4.69 -0.34 2.38 0 0 Z " fill="#2F9331" transform="translate(233,268)"/>
<path d="M0 0 C0.33 0 0.66 0 1 0 C1.37952295 6.19887485 0.8352113 10.4477112 -2 16 C-2.66 16 -3.32 16 -4 16 C-4 19.3 -4 22.6 -4 26 C-4.66 25.34 -5.32 24.68 -6 24 C-5.85652409 15.53492146 -2.81573086 7.88612443 0 0 Z " fill="#8FED71" transform="translate(124,54)"/>
<path d="M0 0 C1.32 0 2.64 0 4 0 C4 0.99 4 1.98 4 3 C5.32 2.67 6.64 2.34 8 2 C8 3.32 8 4.64 8 6 C9.65 6 11.3 6 13 6 C12.938125 6.7425 12.87625 7.485 12.8125 8.25 C13.03094296 11.45383006 13.90250005 12.64031256 16 15 C11.69422496 13.33830526 8.90988145 10.16919694 5.75 6.9375 C5.19570312 6.38255859 4.64140625 5.82761719 4.0703125 5.25585938 C0 1.14043257 0 1.14043257 0 0 Z " fill="#69CA69" transform="translate(159,263)"/>
<path d="M0 0 C4.3890815 0.51035831 7.33708062 1.52214277 11 4 C11.33 3.34 11.66 2.68 12 2 C12.99 3.485 12.99 3.485 14 5 C13.67 5.66 13.34 6.32 13 7 C13.99 7 14.98 7 16 7 C16.33 8.32 16.66 9.64 17 11 C16.34 11 15.68 11 15 11 C15 10.34 15 9.68 15 9 C14.45859375 8.9071875 13.9171875 8.814375 13.359375 8.71875 C10.29033378 7.78381029 7.94225177 6.23785564 5.25 4.5 C4.26515625 3.8709375 3.2803125 3.241875 2.265625 2.59375 C1.51796875 2.0678125 0.7703125 1.541875 0 1 C0 0.67 0 0.34 0 0 Z " fill="#51C74C" transform="translate(177,202)"/>
<path d="M0 0 C0.33 0 0.66 0 1 0 C1.71507439 6.57868441 -0.35859045 11.51872036 -4 17 C-6.171875 18.796875 -6.171875 18.796875 -8 20 C-7.35014905 15.28629244 -5.48438608 11.42313556 -3.4375 7.1875 C-2.9434668 6.14819336 -2.9434668 6.14819336 -2.43945312 5.08789062 C-1.63127749 3.38955052 -0.81631623 1.69444231 0 0 Z " fill="#7ADE78" transform="translate(314,158)"/>
<path d="M0 0 C0.99 0.33 1.98 0.66 3 1 C3 1.66 3 2.32 3 3 C3.721875 3.226875 4.44375 3.45375 5.1875 3.6875 C8.53209313 5.24831013 10.51603959 7.3031287 13 10 C12.67 10.99 12.34 11.98 12 13 C10.68 12.34 9.36 11.68 8 11 C8 10.34 8 9.68 8 9 C7.34 9.66 6.68 10.32 6 11 C5.71125 10.360625 5.4225 9.72125 5.125 9.0625 C4.17176549 6.84793921 4.17176549 6.84793921 2 6 C2 4.68 2 3.36 2 2 C1.34 2 0.68 2 0 2 C0 1.34 0 0.68 0 0 Z " fill="#58D231" transform="translate(199,129)"/>
<path d="M0 0 C2.4375 0.75 2.4375 0.75 5 2 C5.8125 4.125 5.8125 4.125 6 6 C6.66 5.67 7.32 5.34 8 5 C9.46726798 8.81489674 8.43336419 11.29011622 7 15 C4.66302971 12.66302971 3.72905946 10.50902101 2.375 7.5 C1.92898437 6.5203125 1.48296875 5.540625 1.0234375 4.53125 C0 2 0 2 0 0 Z " fill="#56B05A" transform="translate(207,328)"/>
<path d="M0 0 C4.1018884 2.29223175 7.56747142 4.80695016 11 8 C11 8.99 11 9.98 11 11 C9.1875 11.6875 9.1875 11.6875 7 12 C5.25 10.5625 5.25 10.5625 4 9 C4.33 8.01 4.66 7.02 5 6 C4.34 6 3.68 6 3 6 C3 5.34 3 4.68 3 4 C2.34 4 1.68 4 1 4 C0.67 2.68 0.34 1.36 0 0 Z " fill="#49AE48" transform="translate(198,226)"/>
<path d="M0 0 C0.99 0 1.98 0 3 0 C1.55676531 4.73789165 -0.37226733 8.98858151 -2.625 13.375 C-2.94984375 14.01566406 -3.2746875 14.65632813 -3.609375 15.31640625 C-4.40257407 16.87947501 -5.20077031 18.44000622 -6 20 C-6.33 20 -6.66 20 -7 20 C-6.505 15.545 -6.505 15.545 -6 11 C-5.34 11 -4.68 11 -4 11 C-4 10.34 -4 9.68 -4 9 C-3.34 9 -2.68 9 -2 9 C-2 7.02 -2 5.04 -2 3 C-1.34 3 -0.68 3 0 3 C0 2.01 0 1.02 0 0 Z " fill="#63C863" transform="translate(301,336)"/>
<path d="M0 0 C0.99 0.33 1.98 0.66 3 1 C3 2.32 3 3.64 3 5 C3.66 5 4.32 5 5 5 C5.33 6.32 5.66 7.64 6 9 C6.66 9 7.32 9 8 9 C8.99 11.97 9.98 14.94 11 18 C10.01 18 9.02 18 8 18 C6.66180502 15.3773768 5.3292849 12.75213401 4 10.125 C3.6184375 9.37863281 3.236875 8.63226563 2.84375 7.86328125 C2.4828125 7.14785156 2.121875 6.43242187 1.75 5.6953125 C1.41484375 5.03547363 1.0796875 4.37563477 0.734375 3.69580078 C0 2 0 2 0 0 Z " fill="#62B263" transform="translate(197,308)"/>
<path d="M0 0 C3.82990706 0.64743667 6.5283898 2.45311237 9.75 4.5625 C11.22726563 5.52349609 11.22726563 5.52349609 12.734375 6.50390625 C13.85585937 7.24447266 13.85585937 7.24447266 15 8 C11.24738542 9.14175295 9.58058293 8.60183973 6 7 C5.34 7 4.68 7 4 7 C1.875 5.1875 1.875 5.1875 0 3 C0 2.01 0 1.02 0 0 Z " fill="#68D44E" transform="translate(168,207)"/>
<path d="M0 0 C0.66 0 1.32 0 2 0 C2.33 1.65 2.66 3.3 3 5 C2.67 5 2.34 5 2 5 C2 15.23 2 25.46 2 36 C1.67 36 1.34 36 1 36 C0.14083904 31.55852431 -0.11697565 27.37230176 -0.09765625 22.8515625 C-0.09553383 21.86547501 -0.09553383 21.86547501 -0.09336853 20.85946655 C-0.08781762 18.78126269 -0.07527465 16.70317073 -0.0625 14.625 C-0.05747864 13.20703282 -0.05291685 11.78906393 -0.04882812 10.37109375 C-0.03786437 6.91402678 -0.02063421 3.45702433 0 0 Z " fill="#ABF198" transform="translate(106,134)"/>
<path d="M0 0 C1.72108867 1.56462606 2.91783125 2.83018459 3.9375 4.9375 C4.93415614 7.15451987 4.93415614 7.15451987 7.0625 8.9375 C9.28970409 11.30839468 9.64629437 12.81664932 10 16 C8.33333333 14.33333333 6.66666667 12.66666667 5 11 C3.8553125 9.9171875 3.8553125 9.9171875 2.6875 8.8125 C1 7 1 7 1 5 C0.34 5 -0.32 5 -1 5 C-1 4.34 -1 3.68 -1 3 C-1.66 2.67 -2.32 2.34 -3 2 C-2.01 1.34 -1.02 0.68 0 0 Z " fill="#61BF62" transform="translate(178,277)"/>
<path d="M0 0 C0.33 0 0.66 0 1 0 C1.82200425 6.24723226 -1.07448606 10.71317837 -4 16 C-4.33 16 -4.66 16 -5 16 C-5 14.35 -5 12.7 -5 11 C-4.34 11 -3.68 11 -3 11 C-3 9.68 -3 8.36 -3 7 C-3.66 7 -4.32 7 -5 7 C-5 6.01 -5 5.02 -5 4 C-4.0409375 3.8453125 -4.0409375 3.8453125 -3.0625 3.6875 C-2.381875 3.460625 -1.70125 3.23375 -1 3 C-0.67 2.01 -0.34 1.02 0 0 Z " fill="#3EB93E" transform="translate(270,399)"/>
<path d="M0 0 C1.53202706 0.25195908 3.05257128 0.57596777 4.5625 0.9375 C5.38878906 1.13214844 6.21507812 1.32679688 7.06640625 1.52734375 C8.02353516 1.76130859 8.02353516 1.76130859 9 2 C8.67 4.64 8.34 7.28 8 10 C6.68 9.67 5.36 9.34 4 9 C3.67 7.35 3.34 5.7 3 4 C2.34 4 1.68 4 1 4 C1 3.34 1 2.68 1 2 C0.34 1.67 -0.32 1.34 -1 1 C-0.67 0.67 -0.34 0.34 0 0 Z " fill="#09A008" transform="translate(216,225)"/>
<path d="M0 0 C4.75 0.875 4.75 0.875 7 2 C7 2.66 7 3.32 7 4 C7.66 4 8.32 4 9 4 C9 4.99 9 5.98 9 7 C6.69 7.33 4.38 7.66 2 8 C0 2.25 0 2.25 0 0 Z " fill="#39CE0C" transform="translate(192,127)"/>
<path d="M0 0 C0.33 0 0.66 0 1 0 C1 2.64 1 5.28 1 8 C0.01 8.33 -0.98 8.66 -2 9 C-2.33 9.66 -2.66 10.32 -3 11 C-3.33 10.67 -3.66 10.34 -4 10 C-5.65 11.65 -7.3 13.3 -9 15 C-9.33 14.34 -9.66 13.68 -10 13 C-8.875 10.5 -8.875 10.5 -7 8 C-6.154375 7.690625 -5.30875 7.38125 -4.4375 7.0625 C-1.65376175 6.1828644 -1.65376175 6.1828644 -0.6875 2.875 C-0.460625 1.92625 -0.23375 0.9775 0 0 Z " fill="#25CD21" transform="translate(325,143)"/>
<path d="M0 0 C2 3 2 3 1.64453125 5.2265625 C1.23267578 6.41378906 1.23267578 6.41378906 0.8125 7.625 C0.55082031 8.42164063 0.28914063 9.21828125 0.01953125 10.0390625 C-1 12 -1 12 -4 13 C-4 14.32 -4 15.64 -4 17 C-4.99 17.33 -5.98 17.66 -7 18 C-5.06375702 11.79522136 -2.74390859 5.89174281 0 0 Z " fill="#56CE56" transform="translate(264,267)"/>
<path d="M0 0 C0.66 0.33 1.32 0.66 2 1 C0.35433477 6.68502535 -2.29032784 11.76681636 -5 17 C-5.33 17 -5.66 17 -6 17 C-6.125 11.25 -6.125 11.25 -5 9 C-4.34 9 -3.68 9 -3 9 C-2.87625 7.700625 -2.7525 6.40125 -2.625 5.0625 C-2.4140625 2.84765625 -2.4140625 2.84765625 -2 1 C-1.34 0.67 -0.68 0.34 0 0 Z " fill="#53CD53" transform="translate(354,228)"/>
<path d="M0 0 C3.93673644 1.31224548 6.22719294 2.91910327 9 6 C7.3125 7.125 7.3125 7.125 5 8 C2.25 7.125 2.25 7.125 0 6 C0 4.02 0 2.04 0 0 Z " fill="#25B621" transform="translate(183,216)"/>
<path d="M0 0 C3 1 3 1 5 3 C5.33 3 5.66 3 6 3 C6 5.64 6 8.28 6 11 C4.68 11 3.36 11 2 11 C2 8.69 2 6.38 2 4 C1.34 4 0.68 4 0 4 C0 2.68 0 1.36 0 0 Z " fill="#0A910B" transform="translate(249,272)"/>
<path d="M0 0 C0.99 0.33 1.98 0.66 3 1 C3 2.32 3 3.64 3 5 C3.66 5 4.32 5 5 5 C8.42857143 13.42857143 8.42857143 13.42857143 8 18 C5.39667844 14.83936913 3.85961424 11.6568348 2.3125 7.875 C1.87550781 6.82054687 1.43851563 5.76609375 0.98828125 4.6796875 C0 2 0 2 0 0 Z " fill="#65C369" transform="translate(222,361)"/>
<path d="M0 0 C0.53625 0.680625 1.0725 1.36125 1.625 2.0625 C4.35076561 5.43384168 7.16483178 8.72065543 10 12 C9.67 12.66 9.34 13.32 9 14 C7.50260417 12.73046875 6.00520833 11.4609375 4.5078125 10.19140625 C2.99405921 8.9121848 2.99405921 8.9121848 1 8 C0.34 8.66 -0.32 9.32 -1 10 C-1.33 8.68 -1.66 7.36 -2 6 C-1.34 5.67 -0.68 5.34 0 5 C0 3.35 0 1.7 0 0 Z " fill="#84EF5E" transform="translate(138,76)"/>
<path d="M0 0 C0.99 0 1.98 0 3 0 C3 0.66 3 1.32 3 2 C3.66 2.33 4.32 2.66 5 3 C5.99444068 6.34493684 6.10348268 8.68955197 5 12 C4.34 12 3.68 12 3 12 C2.67 9.69 2.34 7.38 2 5 C1.01 5 0.02 5 -1 5 C-0.67 3.35 -0.34 1.7 0 0 Z " fill="#059204" transform="translate(233,240)"/>
<path d="M0 0 C0.33 1.32 0.66 2.64 1 4 C1.99 3.67 2.98 3.34 4 3 C3.67 4.32 3.34 5.64 3 7 C1.35 7.33 -0.3 7.66 -2 8 C-2.33 9.65 -2.66 11.3 -3 13 C-3.66 13 -4.32 13 -5 13 C-4.32116957 9.88452559 -3.25893098 7.14862279 -1.9375 4.25 C-1.57527344 3.45078125 -1.21304687 2.6515625 -0.83984375 1.828125 C-0.56269531 1.22484375 -0.28554688 0.6215625 0 0 Z " fill="#5AD459" transform="translate(288,214)"/>
<path d="M0 0 C0.99 0.495 0.99 0.495 2 1 C2 1.66 2 2.32 2 3 C2.66 3.33 3.32 3.66 4 4 C3.67 4.99 3.34 5.98 3 7 C3.474375 7.4125 3.94875 7.825 4.4375 8.25 C6.16266518 10.182185 6.56584875 11.48192275 7 14 C5.1875 13.9375 5.1875 13.9375 3 13 C0.51387936 8.47170884 -0.38279888 5.23158464 0 0 Z " fill="#35D20D" transform="translate(121,205)"/>
<path d="M0 0 C2.31 0.33 4.62 0.66 7 1 C6.67 3.97 6.34 6.94 6 10 C5.01 9.67 4.02 9.34 3 9 C2.05078125 6.93359375 2.05078125 6.93359375 1.3125 4.4375 C1.06113281 3.61121094 0.80976563 2.78492188 0.55078125 1.93359375 C0.36902344 1.29550781 0.18726563 0.65742188 0 0 Z " fill="#19C702" transform="translate(136,232)"/>
<path d="M0 0 C4.91586999 1.11302717 7.18279421 1.84126764 10 6 C11.0209375 6.2165625 11.0209375 6.2165625 12.0625 6.4375 C12.701875 6.623125 13.34125 6.80875 14 7 C15.25 9.5625 15.25 9.5625 16 12 C13.525 11.01 13.525 11.01 11 10 C11 9.34 11 8.68 11 8 C10.484375 7.773125 9.96875 7.54625 9.4375 7.3125 C6.09033884 5.51018245 2.96109508 3.38717496 0 1 C0 0.67 0 0.34 0 0 Z " fill="#6DCC6D" transform="translate(196,214)"/>
<path d="M0 0 C9.54296875 5.453125 9.54296875 5.453125 10.8125 9.75 C10.874375 10.4925 10.93625 11.235 11 12 C10.01 12 9.02 12 8 12 C8 11.34 8 10.68 8 10 C7.01 9.67 6.02 9.34 5 9 C3.96708324 7.01679982 2.9662501 5.01652194 2 3 C1.34 2.67 0.68 2.34 0 2 C0 1.34 0 0.68 0 0 Z " fill="#53E71B" transform="translate(140,84)"/>
<path d="M0 0 C1.32 0.33 2.64 0.66 4 1 C4 1.99 4 2.98 4 4 C4.99 4.33 5.98 4.66 7 5 C8.75 7.875 8.75 7.875 10 11 C9.67 11.99 9.34 12.98 9 14 C6.69534766 11.03786426 4.72409552 7.97847243 2.8125 4.75 C2.28269531 3.85796875 1.75289062 2.9659375 1.20703125 2.046875 C0.60955078 1.03367187 0.60955078 1.03367187 0 0 Z " fill="#59AD5A" transform="translate(188,294)"/>
<path d="M0 0 C1 3 1 3 -0.43359375 6.13671875 C-1.09135973 7.3260128 -1.75977815 8.50946371 -2.4375 9.6875 C-2.77587891 10.29400391 -3.11425781 10.90050781 -3.46289062 11.52539062 C-4.29957915 13.0220025 -5.14862831 14.51169189 -6 16 C-6.33 16 -6.66 16 -7 16 C-7 14.35 -7 12.7 -7 11 C-6.34 11 -5.68 11 -5 11 C-5 9.68 -5 8.36 -5 7 C-4.34 7 -3.68 7 -3 7 C-3 5.35 -3 3.7 -3 2 C-2.01 2 -1.02 2 0 2 C0 1.34 0 0.68 0 0 Z " fill="#73D873" transform="translate(384,169)"/>
<path d="M0 0 C1.485 0.99 1.485 0.99 3 2 C3 2.66 3 3.32 3 4 C3.66 4 4.32 4 5 4 C5.99 6.97 6.98 9.94 8 13 C8.66 13 9.32 13 10 13 C9.67 14.32 9.34 15.64 9 17 C6.2027092 14.93243723 5.97307727 13.85559629 5.3125 10.3125 C5.209375 9.219375 5.10625 8.12625 5 7 C4.01 6.67 3.02 6.34 2 6 C2 5.01 2 4.02 2 3 C1.34 3 0.68 3 0 3 C0 2.01 0 1.02 0 0 Z " fill="#3FE110" transform="translate(129,155)"/>
<path d="M0 0 C3.80167749 5.70251624 4.28602017 12.27852593 4 19 C3.67 19 3.34 19 3 19 C2.34 15.37 1.68 11.74 1 8 C0.34 8 -0.32 8 -1 8 C-1.04241723 5.66705225 -1.04092937 3.33297433 -1 1 C-0.67 0.67 -0.34 0.34 0 0 Z " fill="#7FCF7C" transform="translate(258,213)"/>
<path d="M0 0 C0 3.55157911 -0.99418238 5.48763755 -2.5 8.6875 C-3.19609375 10.17830078 -3.19609375 10.17830078 -3.90625 11.69921875 C-4.2671875 12.45847656 -4.628125 13.21773437 -5 14 C-5.33 14 -5.66 14 -6 14 C-5.67 11.03 -5.34 8.06 -5 5 C-4.34 5 -3.68 5 -3 5 C-3 3.68 -3 2.36 -3 1 C-2.01 0.67 -1.02 0.34 0 0 Z " fill="#5DD35C" transform="translate(376,186)"/>
<path d="M0 0 C1.1796875 1.609375 1.1796875 1.609375 2 4 C0.8828125 7.015625 0.8828125 7.015625 -0.875 10.25 C-1.44992187 11.32765625 -2.02484375 12.4053125 -2.6171875 13.515625 C-3.07351563 14.33546875 -3.52984375 15.1553125 -4 16 C-4.33 16 -4.66 16 -5 16 C-4.67 13.69 -4.34 11.38 -4 9 C-3.34 9 -2.68 9 -2 9 C-2 7.02 -2 5.04 -2 3 C-1.34 3 -0.68 3 0 3 C0 2.01 0 1.02 0 0 Z " fill="#67CE66" transform="translate(321,295)"/>
<path d="M0 0 C0.99 0.33 1.98 0.66 3 1 C3.33 2.65 3.66 4.3 4 6 C4.66 6 5.32 6 6 6 C5.67 6.99 5.34 7.98 5 9 C2.03 8.505 2.03 8.505 -1 8 C-0.67 5.36 -0.34 2.72 0 0 Z " fill="#078B06" transform="translate(210,238)"/>
<path d="M0 0 C3.93544623 1.31181541 5.74938163 3.95958727 8.14453125 7.1484375 C9.22877115 9.49514852 8.85573613 10.61653863 8 13 C8 12.34 8 11.68 8 11 C7.34 11 6.68 11 6 11 C4.4921875 9.1015625 4.4921875 9.1015625 2.875 6.625 C2.33617187 5.81289062 1.79734375 5.00078125 1.2421875 4.1640625 C0 2 0 2 0 0 Z " fill="#5DCE4E" transform="translate(130,228)"/>
<path d="M0 0 C2.31 0.33 4.62 0.66 7 1 C6.814375 1.61875 6.62875 2.2375 6.4375 2.875 C5.76313824 5.04160178 5.76313824 5.04160178 7 7 C4.83125748 6.49396008 3.00032373 6.00016187 1 5 C0.375 2.4375 0.375 2.4375 0 0 Z " fill="#0CB108" transform="translate(195,209)"/>
<path d="M0 0 C0.33 0.66 0.66 1.32 1 2 C1.66 2 2.32 2 3 2 C2.45912682 5.78611227 0.88277668 7.55400767 -2 10 C-2.66 10 -3.32 10 -4 10 C-3.52449439 8.51965236 -3.04448784 7.04074979 -2.5625 5.5625 C-2.29566406 4.73878906 -2.02882813 3.91507813 -1.75390625 3.06640625 C-1 1 -1 1 0 0 Z " fill="#50D450" transform="translate(305,178)"/>
<path d="M0 0 C5.08938811 1.59043379 8.87456643 4.7446951 13 8 C11 9 11 9 8.90625 8.3984375 C2.34543155 5.60795952 2.34543155 5.60795952 0.4375 2.25 C0.293125 1.5075 0.14875 0.765 0 0 Z " fill="#8BE56C" transform="translate(166,106)"/>
<path d="M0 0 C0.99 0.33 1.98 0.66 3 1 C3.04898438 1.78246094 3.09796875 2.56492188 3.1484375 3.37109375 C3.22320312 4.38300781 3.29796875 5.39492187 3.375 6.4375 C3.47941406 7.95150391 3.47941406 7.95150391 3.5859375 9.49609375 C3.72257812 10.32238281 3.85921875 11.14867187 4 12 C4.66 12.33 5.32 12.66 6 13 C5.01 13 4.02 13 3 13 C2.29819469 11.5903653 1.61406042 10.17192359 0.9375 8.75 C0.55464844 7.96109375 0.17179687 7.1721875 -0.22265625 6.359375 C-1.08564091 3.74006478 -0.93045933 2.55144824 0 0 Z " fill="#7BE260" transform="translate(118,202)"/>
<path d="M0 0 C0.33 0 0.66 0 1 0 C0.52060632 4.71403788 0.03165952 8.66579301 -2 13 C-2.99 12.67 -3.98 12.34 -5 12 C-4.35550393 8.98782888 -3.34977818 6.48344164 -1.9375 3.75 C-1.57527344 3.04359375 -1.21304687 2.3371875 -0.83984375 1.609375 C-0.56269531 1.07828125 -0.28554688 0.5471875 0 0 Z " fill="#66D864" transform="translate(327,131)"/>
<path d="M0 0 C2 2 2 2 2.265625 3.953125 C2.2333496 8.69760936 1.82950826 12.54057362 0 17 C-0.33 17 -0.66 17 -1 17 C-1.12036664 11.22240116 -0.8320582 5.72040011 0 0 Z " fill="#56ED20" transform="translate(118,78)"/>
<path d="M0 0 C0.99 0.33 1.98 0.66 3 1 C3 2.32 3 3.64 3 5 C3.66 5 4.32 5 5 5 C5.33 5.99 5.66 6.98 6 8 C6.804375 8.7115625 6.804375 8.7115625 7.625 9.4375 C8.07875 9.953125 8.5325 10.46875 9 11 C8.5859375 13.09765625 8.5859375 13.09765625 8 15 C6.84735447 13.25447936 5.70312673 11.50339804 4.5625 9.75 C3.92441406 8.77546875 3.28632813 7.8009375 2.62890625 6.796875 C1.2423864 4.41618385 0.453419 2.68219693 0 0 Z " fill="#8AE96E" transform="translate(126,153)"/>
<path d="M0 0 C0.99 0.33 1.98 0.66 3 1 C2.35550393 4.01217112 1.34977818 6.51655836 -0.0625 9.25 C-0.42472656 9.95640625 -0.78695313 10.6628125 -1.16015625 11.390625 C-1.43730469 11.92171875 -1.71445312 12.4528125 -2 13 C-3.59905707 9.80188585 -2.0253335 7.30385238 -1 4 C-0.65864073 2.66869885 -0.32074044 1.33641852 0 0 Z " fill="#61D55F" transform="translate(397,137)"/>
<path d="M0 0 C1 3 1 3 0.00390625 5.26171875 C-0.47175781 6.06222656 -0.94742187 6.86273438 -1.4375 7.6875 C-1.91058594 8.49574219 -2.38367188 9.30398437 -2.87109375 10.13671875 C-3.24363281 10.75160156 -3.61617188 11.36648437 -4 12 C-4.97591583 8.61682513 -4.85856655 6.4342662 -4 3 C-3.34 3 -2.68 3 -2 3 C-2 2.34 -2 1.68 -2 1 C-1.34 0.67 -0.68 0.34 0 0 Z " fill="#6BD368" transform="translate(369,200)"/>
<path d="M0 0 C0.99 0 1.98 0 3 0 C3 2.64 3 5.28 3 8 C3.66 8 4.32 8 5 8 C5 10.31 5 12.62 5 15 C0 5.38461538 0 5.38461538 0 0 Z " fill="#60B15C" transform="translate(246,268)"/>
<path d="M0 0 C0 1.65 0 3.3 0 5 C-3.87132028 4.42647107 -6.08172796 2.51295648 -9 0 C-5.62182575 -0.84454356 -3.32534757 -1.10844919 0 0 Z " fill="#11BC07" transform="translate(188,201)"/>
<path d="M0 0 C0.99 0 1.98 0 3 0 C4.03590199 5.05002222 4.10251672 9.87416389 4 15 C2 13 2 13 1.8046875 10.6171875 C1.82789062 9.71226562 1.85109375 8.80734375 1.875 7.875 C1.89304687 6.96492187 1.91109375 6.05484375 1.9296875 5.1171875 C1.95289062 4.41851562 1.97609375 3.71984375 2 3 C1.34 3 0.68 3 0 3 C0 2.01 0 1.02 0 0 Z " fill="#5FE138" transform="translate(113,188)"/>
<path d="M0 0 C0.66 0 1.32 0 2 0 C2 0.99 2 1.98 2 3 C2.66 3 3.32 3 4 3 C4 5.64 4 8.28 4 11 C2 10 2 10 0.875 7.75 C-0.00513321 4.98386705 -0.1645438 2.87951649 0 0 Z " fill="#49BC47" transform="translate(246,413)"/>
<path d="M0 0 C0.99 0 1.98 0 3 0 C3 0.99 3 1.98 3 3 C3.66 3 4.32 3 5 3 C5 5.64 5 8.28 5 11 C4.01 10.67 3.02 10.34 2 10 C1.33333333 6.66666667 0.66666667 3.33333333 0 0 Z " fill="#088A07" transform="translate(195,298)"/>
<path d="M0 0 C1.1171875 1.734375 1.1171875 1.734375 2 4 C1.3203125 6.140625 1.3203125 6.140625 0.125 8.25 C-0.26429688 8.95640625 -0.65359375 9.6628125 -1.0546875 10.390625 C-1.36664063 10.92171875 -1.67859375 11.4528125 -2 12 C-2.33 12 -2.66 12 -3 12 C-3 9.36 -3 6.72 -3 4 C-2.34 4 -1.68 4 -1 4 C-0.67 2.68 -0.34 1.36 0 0 Z " fill="#4AC94C" transform="translate(336,264)"/>
<path d="M0 0 C0.33 0 0.66 0 1 0 C1.18451025 9.41002278 1.18451025 9.41002278 0 14 C-3 10.25 -3 10.25 -3 8 C-2.34 8 -1.68 8 -1 8 C-1.33 6.35 -1.66 4.7 -2 3 C-1.34 3 -0.68 3 0 3 C0 2.01 0 1.02 0 0 Z " fill="#168B17" transform="translate(260,255)"/>
<path d="M0 0 C2.96175123 0.61277612 4.38058783 1.25372522 7 3 C7.6875 6.125 7.6875 6.125 8 9 C5.95880212 7.38405168 3.95927063 5.7143618 2 4 C2 3.34 2 2.68 2 2 C1.34 2 0.68 2 0 2 C0 1.34 0 0.68 0 0 Z " fill="#5BCA57" transform="translate(147,250)"/>
<path d="M0 0 C1.33855056 0.78281305 2.67073644 1.57651877 4 2.375 C5.11375 3.03628906 5.11375 3.03628906 6.25 3.7109375 C6.8275 4.13632813 7.405 4.56171875 8 5 C8 5.66 8 6.32 8 7 C8.99 7.33 9.98 7.66 11 8 C10.01 8.495 10.01 8.495 9 9 C8.01 8.67 7.02 8.34 6 8 C6 7.34 6 6.68 6 6 C4.68 6 3.36 6 2 6 C1.34 4.02 0.68 2.04 0 0 Z " fill="#81E65F" transform="translate(138,185)"/>
<path d="M0 0 C4.875 2.625 4.875 2.625 6 6 C6.66 6 7.32 6 8 6 C8 6.66 8 7.32 8 8 C2.25 6.125 2.25 6.125 0 5 C0 3.35 0 1.7 0 0 Z " fill="#71E740" transform="translate(123,171)"/>
<path d="M0 0 C0.66 0.33 1.32 0.66 2 1 C1.67 3.31 1.34 5.62 1 8 C0.01 8.33 -0.98 8.66 -2 9 C-2.6875 6.75 -2.6875 6.75 -3 4 C-1.5625 1.6875 -1.5625 1.6875 0 0 Z " fill="#05C802" transform="translate(380,168)"/>
<path d="M0 0 C0.99 0.33 1.98 0.66 3 1 C3 1.66 3 2.32 3 3 C3.66 3 4.32 3 5 3 C5 3.66 5 4.32 5 5 C5.9590625 5.433125 5.9590625 5.433125 6.9375 5.875 C9 7 9 7 10 9 C8.35 8.67 6.7 8.34 5 8 C4.67 7.01 4.34 6.02 4 5 C3.01 4.67 2.02 4.34 1 4 C0.3125 1.9375 0.3125 1.9375 0 0 Z " fill="#95E978" transform="translate(150,92)"/>
<path d="M0 0 C0.99 0 1.98 0 3 0 C3 0.66 3 1.32 3 2 C3.99 2 4.98 2 6 2 C6.33 4.31 6.66 6.62 7 9 C6.67 8.34 6.34 7.68 6 7 C5.34 7 4.68 7 4 7 C0 2.52941176 0 2.52941176 0 0 Z " fill="#5AB35A" transform="translate(229,243)"/>
<path d="M0 0 C3.63 2.31 7.26 4.62 11 7 C7.86650268 8.04449911 7.01031744 7.93423645 4 7 C4 6.34 4 5.68 4 5 C2.68 4.34 1.36 3.68 0 3 C0 2.01 0 1.02 0 0 Z " fill="#7FE359" transform="translate(150,194)"/>
<path d="M0 0 C0.33 0 0.66 0 1 0 C1.33 2.64 1.66 5.28 2 8 C1.071875 8.12375 1.071875 8.12375 0.125 8.25 C-2.18437567 8.81258459 -2.18437567 8.81258459 -3.25 11.0625 C-3.4975 11.701875 -3.745 12.34125 -4 13 C-4.33 12.34 -4.66 11.68 -5 11 C-4.00390625 8.3984375 -4.00390625 8.3984375 -2.5625 5.375 C-2.08941406 4.37210938 -1.61632812 3.36921875 -1.12890625 2.3359375 C-0.75636719 1.56507813 -0.38382812 0.79421875 0 0 Z " fill="#7AE07B" transform="translate(300,188)"/>
<path d="M0 0 C1.20628008 2.33214148 2.1654738 4.49642139 3 7 C3.99 7.33 4.98 7.66 6 8 C6.6875 10.0625 6.6875 10.0625 7 12 C6.34 12 5.68 12 5 12 C5 11.01 5 10.02 5 9 C3.5459375 8.62875 3.5459375 8.62875 2.0625 8.25 C1.051875 7.8375 0.04125 7.425 -1 7 C-1.875 4.875 -1.875 4.875 -2 3 C-1.34 3 -0.68 3 0 3 C0 2.01 0 1.02 0 0 Z " fill="#5FEB33" transform="translate(131,64)"/>
<path d="M0 0 C0.99 0.33 1.98 0.66 3 1 C3.33 2.65 3.66 4.3 4 6 C4.66 6 5.32 6 6 6 C6 7.32 6 8.64 6 10 C5.01 9.67 4.02 9.34 3 9 C2.05078125 6.93359375 2.05078125 6.93359375 1.3125 4.4375 C1.06113281 3.61121094 0.80976563 2.78492188 0.55078125 1.93359375 C0.36902344 1.29550781 0.18726563 0.65742188 0 0 Z " fill="#58BF5A" transform="translate(250,425)"/>
<path d="M0 0 C0.99 0 1.98 0 3 0 C1.84414715 3.91211733 0.64465038 6.8745041 -2 10 C-2 7.69 -2 5.38 -2 3 C-1.34 3 -0.68 3 0 3 C0 2.01 0 1.02 0 0 Z " fill="#60C362" transform="translate(273,393)"/>
<path d="M0 0 C1.32 0 2.64 0 4 0 C4 0.99 4 1.98 4 3 C5.32 2.67 6.64 2.34 8 2 C8 3.98 8 5.96 8 8 C6.85073734 7.04578192 5.70569459 6.08647955 4.5625 5.125 C3.92441406 4.59132813 3.28632813 4.05765625 2.62890625 3.5078125 C1 2 1 2 0 0 Z " fill="#61CB5E" transform="translate(159,263)"/>
<path d="M0 0 C1.98 0.495 1.98 0.495 4 1 C5.125 4.75 5.125 4.75 4 7 C2.0625 6.6875 2.0625 6.6875 0 6 C-1 3 -1 3 0 0 Z " fill="#078506" transform="translate(217,247)"/>
<path d="M0 0 C0.66 0 1.32 0 2 0 C2.33 0.99 2.66 1.98 3 3 C2.01 3.33 1.02 3.66 0 4 C0.33 4.99 0.66 5.98 1 7 C-0.875 6.75 -0.875 6.75 -3 6 C-4.25 3.9375 -4.25 3.9375 -5 2 C-3.35 1.67 -1.7 1.34 0 1 C0 0.67 0 0.34 0 0 Z " fill="#16BF06" transform="translate(174,192)"/>
<path d="M0 0 C1.875 0.25 1.875 0.25 4 1 C5.25 3.0625 5.25 3.0625 6 5 C3.69 4.67 1.38 4.34 -1 4 C-0.67 2.68 -0.34 1.36 0 0 Z " fill="#3FDB12" transform="translate(162,105)"/>
<path d="M0 0 C2.42130331 2.42130331 2.52840504 3.80111377 3.125 7.125 C3.29257813 8.03507812 3.46015625 8.94515625 3.6328125 9.8828125 C3.81457031 10.93082031 3.81457031 10.93082031 4 12 C1.47411298 9.63707344 0.11179163 8.33537489 -1 5 C-0.5625 2.3125 -0.5625 2.3125 0 0 Z " fill="#6BB86D" transform="translate(241,281)"/>
<path d="M0 0 C3 0 3 0 6 1 C6 2.32 6 3.64 6 5 C2.25 6.125 2.25 6.125 0 5 C0 3.35 0 1.7 0 0 Z " fill="#088D09" transform="translate(242,257)"/>
<path d="M0 0 C1.17539996 0.92652701 2.34010577 1.86663387 3.5 2.8125 C4.1496875 3.33457031 4.799375 3.85664063 5.46875 4.39453125 C7 6 7 6 7 9 C5.68 8.34 4.36 7.68 3 7 C3 6.34 3 5.68 3 5 C2.34 5 1.68 5 1 5 C0.67 3.35 0.34 1.7 0 0 Z " fill="#68B467" transform="translate(213,239)"/>
<path d="M0 0 C0.66 0 1.32 0 2 0 C2.75 1.5625 2.75 1.5625 3 4 C1.86915563 6.50286409 0.47860484 8.67007722 -1 11 C-1.33 11 -1.66 11 -2 11 C-2 9.35 -2 7.7 -2 6 C-1.34 6 -0.68 6 0 6 C0 4.02 0 2.04 0 0 Z " fill="#5CD35D" transform="translate(361,211)"/>
<path d="M0 0 C1.65 0.33 3.3 0.66 5 1 C5 2.98 5 4.96 5 7 C3.02 7 1.04 7 -1 7 C-0.01 5.68 0.98 4.36 2 3 C1.34 3 0.68 3 0 3 C0 2.01 0 1.02 0 0 Z " fill="#43D811" transform="translate(145,193)"/>
<path d="M0 0 C3.37462715 0.54723683 5.08235 1.0549 8 3 C6.68 3.99 5.36 4.98 4 6 C3.34 5.67 2.68 5.34 2 5 C2 4.01 2 3.02 2 2 C1.34 2 0.68 2 0 2 C0 1.34 0 0.68 0 0 Z " fill="#1DCF01" transform="translate(147,176)"/>
<path d="M0 0 C1 3 1 3 -0.1875 5.5 C-1.94150569 7.9193182 -3.51794573 9.37382651 -6 11 C-5.125 6.25 -5.125 6.25 -4 4 C-3.34 4 -2.68 4 -2 4 C-1.34 2.68 -0.68 1.36 0 0 Z " fill="#50D251" transform="translate(312,167)"/>
<path d="M0 0 C0.99 0 1.98 0 3 0 C2.55090939 1.48199902 2.09043436 2.96055236 1.625 4.4375 C1.36976563 5.26121094 1.11453125 6.08492187 0.8515625 6.93359375 C0 9 0 9 -2 10 C-2.17942163 6.05272412 -2.09350689 3.4019487 0 0 Z " fill="#69D567" transform="translate(387,159)"/>
<path d="M0 0 C2.475 0.495 2.475 0.495 5 1 C5 1.66 5 2.32 5 3 C5.66 3 6.32 3 7 3 C7.33 4.65 7.66 6.3 8 8 C6.66102417 7.04956626 5.32894573 6.08940853 4 5.125 C3.2575 4.59132812 2.515 4.05765625 1.75 3.5078125 C1.1725 3.01023438 0.595 2.51265625 0 2 C0 1.34 0 0.68 0 0 Z " fill="#63C364" transform="translate(212,226)"/>
<path d="M0 0 C0.33 1.98 0.66 3.96 1 6 C-3.75 4.125 -3.75 4.125 -6 3 C-6 2.34 -6 1.68 -6 1 C-3.92446352 0.4465236 -2.15634036 0 0 0 Z " fill="#56CF4A" transform="translate(170,192)"/>
<path d="M0 0 C0.99 0.33 1.98 0.66 3 1 C1.125 5.75 1.125 5.75 0 8 C-0.99 8 -1.98 8 -3 8 C-1.125 2.25 -1.125 2.25 0 0 Z " fill="#56D551" transform="translate(331,122)"/>
<path d="M0 0 C1.125 1.625 1.125 1.625 2 4 C1.125 7.25 1.125 7.25 0 10 C-2 8 -2 8 -2.125 4.375 C-2.08375 3.26125 -2.0425 2.1475 -2 1 C-1.34 0.67 -0.68 0.34 0 0 Z " fill="#31A333" transform="translate(214,333)"/>
<path d="M0 0 C1.30660357 4.29727397 0.6596762 7.60215865 0 12 C-0.66 12 -1.32 12 -2 12 C-3.12377697 8.69564916 -2.89554742 6.9493138 -1.5625 3.75 C-1.27503906 3.04359375 -0.98757812 2.3371875 -0.69140625 1.609375 C-0.46324219 1.07828125 -0.23507813 0.5471875 0 0 Z " fill="#5DCC61" transform="translate(251,296)"/>
<path d="M0 0 C0.99 0.33 1.98 0.66 3 1 C3 1.66 3 2.32 3 3 C3.99 3.66 4.98 4.32 6 5 C6.1875 7.625 6.1875 7.625 6 10 C3.61405803 8.80702902 3.16265153 7.85642735 1.875 5.5625 C1.52179688 4.94503906 1.16859375 4.32757813 0.8046875 3.69140625 C0 2 0 2 0 0 Z " fill="#86C885" transform="translate(236,252)"/>
<path d="M0 0 C2.33524782 2.25740623 4.18705073 4.2805761 6 7 C6 7.99 6 8.98 6 10 C5.01 9.67 4.02 9.34 3 9 C3 7.68 3 6.36 3 5 C2.34 5 1.68 5 1 5 C0.67 3.35 0.34 1.7 0 0 Z " fill="#71CF5F" transform="translate(239,171)"/>
<path d="M0 0 C0.99 0.33 1.98 0.66 3 1 C3 1.66 3 2.32 3 3 C3.66 3 4.32 3 5 3 C4.67 4.65 4.34 6.3 4 8 C3.34 7.67 2.68 7.34 2 7 C1.26924352 4.6859378 0.59861742 2.35171131 0 0 Z " fill="#4FB350" transform="translate(214,343)"/>
<path d="M0 0 C1 3 1 3 0.0625 5.1875 C-0.4634375 6.0846875 -0.4634375 6.0846875 -1 7 C-1.99 6.67 -2.98 6.34 -4 6 C-4 4.68 -4 3.36 -4 2 C-2.68 2 -1.36 2 0 2 C0 1.34 0 0.68 0 0 Z " fill="#84C784" transform="translate(255,281)"/>
<path d="M0 0 C1.47968023 2.95936046 0.84835797 4.86760134 0 8 C-2.05078125 9.1875 -2.05078125 9.1875 -4 10 C-3.52449439 8.51965236 -3.04448784 7.04074979 -2.5625 5.5625 C-2.29566406 4.73878906 -2.02882813 3.91507813 -1.75390625 3.06640625 C-1 1 -1 1 0 0 Z " fill="#6CD770" transform="translate(273,248)"/>
<path d="M0 0 C5.57142857 5.14285714 5.57142857 5.14285714 6 9 C4.68 8.67 3.36 8.34 2 8 C1.34 5.36 0.68 2.72 0 0 Z " fill="#7DDA68" transform="translate(233,162)"/>
<path d="M0 0 C2.97 0.495 2.97 0.495 6 1 C5.67 2.65 5.34 4.3 5 6 C3.31237149 4.3545622 1.6459651 2.68711423 0 1 C0 0.67 0 0.34 0 0 Z " fill="#39EB04" transform="translate(128,152)"/>
<path d="M0 0 C0.99 0.33 1.98 0.66 3 1 C3 1.66 3 2.32 3 3 C4.2065625 3.433125 4.2065625 3.433125 5.4375 3.875 C8 5 8 5 9 7 C6.69 6.67 4.38 6.34 2 6 C2 4.68 2 3.36 2 2 C1.34 2 0.68 2 0 2 C0 1.34 0 0.68 0 0 Z " fill="#87E16C" transform="translate(199,129)"/>
<path d="M0 0 C2 3 2 3 2 5 C1.01 5.495 1.01 5.495 0 6 C-0.40729228 8.32156597 -0.74438677 10.6568787 -1 13 C-1.33 13 -1.66 13 -2 13 C-2 9.7 -2 6.4 -2 3 C-1.34 3 -0.68 3 0 3 C0 2.01 0 1.02 0 0 Z " fill="#4BEA15" transform="translate(122,67)"/>
<path d="M0 0 C0.66 0 1.32 0 2 0 C1.44271087 3.34373475 0.64826111 6.03312999 -1 9 C-1.33 9 -1.66 9 -2 9 C-2 7.02 -2 5.04 -2 3 C-1.34 3 -0.68 3 0 3 C0 2.01 0 1.02 0 0 Z " fill="#68D16A" transform="translate(331,275)"/>
<path d="M0 0 C1.5 1.3125 1.5 1.3125 3 3 C3 3.99 3 4.98 3 6 C1.68 5.67 0.36 5.34 -1 5 C-1 4.34 -1 3.68 -1 3 C-1.66 2.67 -2.32 2.34 -3 2 C-2.01 1.34 -1.02 0.68 0 0 Z " fill="#3AB03A" transform="translate(178,277)"/>
<path d="M0 0 C0.33 0.66 0.66 1.32 1 2 C0.22265625 3.7265625 0.22265625 3.7265625 -0.9375 5.625 C-1.618125 6.73875 -2.29875 7.8525 -3 9 C-3.33 9 -3.66 9 -4 9 C-4 7.35 -4 5.7 -4 4 C-3.34 4 -2.68 4 -2 4 C-2 3.01 -2 2.02 -2 1 C-1.34 0.67 -0.68 0.34 0 0 Z " fill="#7FDC7E" transform="translate(342,256)"/>
<path d="M0 0 C2.875 0.25 2.875 0.25 6 1 C7.375 3.0625 7.375 3.0625 8 5 C4.62496331 3.8141763 2.35277269 2.72426311 0 0 Z " fill="#77D36B" transform="translate(177,202)"/>
<path d="M0 0 C3 1 3 1 4 3 C4.039992 4.99960012 4.04346799 7.00047242 4 9 C1.49701566 6.06171403 0.53069061 3.82097239 0 0 Z " fill="#70C96E" transform="translate(236,393)"/>
<path d="M0 0 C0.99 0.33 1.98 0.66 3 1 C2.39816251 3.02045442 1.72693904 5.02111039 1 7 C0.01 7.495 0.01 7.495 -1 8 C-0.67 5.36 -0.34 2.72 0 0 Z " fill="#63C668" transform="translate(279,380)"/>
<path d="M0 0 C4.875 1.75 4.875 1.75 6 4 C5.01 4 4.02 4 3 4 C2.34 4.99 1.68 5.98 1 7 C0 2.25 0 2.25 0 0 Z " fill="#4BC549" transform="translate(183,216)"/>
<path d="M0 0 C4.92307692 4.30769231 4.92307692 4.30769231 5.3125 7.8125 C5.209375 8.534375 5.10625 9.25625 5 10 C0 3.40909091 0 3.40909091 0 0 Z " fill="#93E080" transform="translate(123,216)"/>
<path d="M0 0 C2.475 0.99 2.475 0.99 5 2 C4.01 3.485 4.01 3.485 3 5 C1.68 4.34 0.36 3.68 -1 3 C-0.67 2.01 -0.34 1.02 0 0 Z " fill="#08A905" transform="translate(205,216)"/>
<path d="M0 0 C3.465 1.485 3.465 1.485 7 3 C7 3.66 7 4.32 7 5 C4.03 4.505 4.03 4.505 1 4 C0.67 2.68 0.34 1.36 0 0 Z " fill="#77DF51" transform="translate(161,202)"/>
<path d="M0 0 C1.32 0.33 2.64 0.66 4 1 C4 1.66 4 2.32 4 3 C2.1875 4.0625 2.1875 4.0625 0 5 C-0.99 4.67 -1.98 4.34 -3 4 C-2.01 2.68 -1.02 1.36 0 0 Z " fill="#10B903" transform="translate(244,187)"/>
<path d="M0 0 C3.16717283 1.58358642 4.73268318 2.45263699 6.3125 5.6875 C6.539375 6.450625 6.76625 7.21375 7 8 C5.68 7.67 4.36 7.34 3 7 C3 5.68 3 4.36 3 3 C2.01 2.67 1.02 2.34 0 2 C0 1.34 0 0.68 0 0 Z " fill="#7CEB55" transform="translate(118,164)"/>
<path d="M0 0 C0.99 0.33 1.98 0.66 3 1 C3.33 3.64 3.66 6.28 4 9 C1.49701566 6.06171403 0.53069061 3.82097239 0 0 Z " fill="#69C46A" transform="translate(230,379)"/>
<path d="M0 0 C1.65 0 3.3 0 5 0 C4.67 1.32 4.34 2.64 4 4 C4.66 4.33 5.32 4.66 6 5 C4.35 4.67 2.7 4.34 1 4 C0.67 2.68 0.34 1.36 0 0 Z " fill="#068E04" transform="translate(202,313)"/>
<path d="M0 0 C1.32 0.33 2.64 0.66 4 1 C4.33 2.98 4.66 4.96 5 7 C4.01 6.67 3.02 6.34 2 6 C0.8125 2.9375 0.8125 2.9375 0 0 Z " fill="#1DC20C" transform="translate(137,235)"/>
<path d="M0 0 C0.33 0.66 0.66 1.32 1 2 C1.66 2 2.32 2 3 2 C3 3.32 3 4.64 3 6 C1.68 6 0.36 6 -1 6 C-0.67 4.02 -0.34 2.04 0 0 Z " fill="#3FCE44" transform="translate(282,227)"/>
<path d="M0 0 C2 3 2 3 2 5 C2.66 5 3.32 5 4 5 C3.67 6.32 3.34 7.64 3 9 C1.5 7.875 1.5 7.875 0 6 C-0.1875 2.8125 -0.1875 2.8125 0 0 Z " fill="#5BDC3E" transform="translate(135,163)"/>
</svg>
